<?xml version="1.0" encoding="UTF-8" standalone="no"?>
<!-- Created with Inkscape (http://www.inkscape.org/) -->

<svg
   xmlns:dc="http://purl.org/dc/elements/1.1/"
   xmlns:cc="http://creativecommons.org/ns#"
   xmlns:rdf="http://www.w3.org/1999/02/22-rdf-syntax-ns#"
   xmlns:svg="http://www.w3.org/2000/svg"
   xmlns="http://www.w3.org/2000/svg"
   xmlns:sodipodi="http://sodipodi.sourceforge.net/DTD/sodipodi-0.dtd"
   xmlns:inkscape="http://www.inkscape.org/namespaces/inkscape"
   width="744.09448819"
   height="1052.3622047"
   id="svg2"
   version="1.1"
   inkscape:version="0.48.2 r9819"
   sodipodi:docname="saddlenodecycles.svg">
  <defs
     id="defs4">
    <marker
       inkscape:stockid="TriangleOutM"
       orient="auto"
       refY="0.0"
       refX="0.0"
       id="TriangleOutM"
       style="overflow:visible">
      <path
         id="path5040"
         d="M 5.77,0.0 L -2.88,5.0 L -2.88,-5.0 L 5.77,0.0 z "
         style="fill-rule:evenodd;stroke:#000000;stroke-width:1.0pt;marker-start:none"
         transform="scale(0.4)" />
    </marker>
    <marker
       inkscape:stockid="TriangleInS"
       orient="auto"
       refY="0.0"
       refX="0.0"
       id="TriangleInS"
       style="overflow:visible">
      <path
         id="path3917"
         d="M 5.77,0.0 L -2.88,5.0 L -2.88,-5.0 L 5.77,0.0 z "
         style="fill-rule:evenodd;stroke:#000000;stroke-width:1.0pt;marker-start:none"
         transform="scale(-0.2)" />
    </marker>
    <marker
       inkscape:stockid="TriangleOutS"
       orient="auto"
       refY="0.0"
       refX="0.0"
       id="TriangleOutS"
       style="overflow:visible">
      <path
         id="path3926"
         d="M 5.77,0.0 L -2.88,5.0 L -2.88,-5.0 L 5.77,0.0 z "
         style="fill-rule:evenodd;stroke:#000000;stroke-width:1.0pt;marker-start:none"
         transform="scale(0.2)" />
    </marker>
    <marker
       inkscape:stockid="TriangleInM"
       orient="auto"
       refY="0.0"
       refX="0.0"
       id="TriangleInM"
       style="overflow:visible">
      <path
         id="path3914"
         d="M 5.77,0.0 L -2.88,5.0 L -2.88,-5.0 L 5.77,0.0 z "
         style="fill-rule:evenodd;stroke:#000000;stroke-width:1.0pt;marker-start:none"
         transform="scale(-0.4)" />
    </marker>
    <marker
       inkscape:stockid="Arrow2Mstart"
       orient="auto"
       refY="0.0"
       refX="0.0"
       id="Arrow2Mstart"
       style="overflow:visible">
      <path
         id="path3801"
         style="font-size:12.0;fill-rule:evenodd;stroke-width:0.62500000;stroke-linejoin:round"
         d="M 8.7185878,4.0337352 L -2.2072895,0.016013256 L 8.7185884,-4.0017078 C 6.9730900,-1.6296469 6.9831476,1.6157441 8.7185878,4.0337352 z "
         transform="scale(0.6) translate(0,0)" />
    </marker>
  </defs>
  <sodipodi:namedview
     id="base"
     pagecolor="#ffffff"
     bordercolor="#666666"
     borderopacity="1.0"
     inkscape:pageopacity="0.0"
     inkscape:pageshadow="2"
     inkscape:zoom="1"
     inkscape:cx="527.83069"
     inkscape:cy="816.50076"
     inkscape:document-units="px"
     inkscape:current-layer="layer1"
     showgrid="false"
     inkscape:window-width="1280"
     inkscape:window-height="752"
     inkscape:window-x="0"
     inkscape:window-y="0"
     inkscape:window-maximized="1" />
  <metadata
     id="metadata7">
    <rdf:RDF>
      <cc:Work
         rdf:about="">
        <dc:format>image/svg+xml</dc:format>
        <dc:type
           rdf:resource="http://purl.org/dc/dcmitype/StillImage" />
        <dc:title></dc:title>
      </cc:Work>
    </rdf:RDF>
  </metadata>
  <g
     inkscape:label="Layer 1"
     inkscape:groupmode="layer"
     id="layer1">
    <path
       sodipodi:type="arc"
       style="fill:none;stroke:#000000;stroke-width:2.30807805;stroke-miterlimit:4;stroke-opacity:1;stroke-dasharray:none;marker-mid:url(#TriangleInM)"
       id="path4811"
       sodipodi:cx="364.44482"
       sodipodi:cy="121.47819"
       sodipodi:rx="79.08773"
       sodipodi:ry="79.08773"
       d="m 443.53255,121.47819 a 79.08773,79.08773 0 1 1 -0.001,-0.46594"
       transform="matrix(1.0831523,0,0,1.0831523,-31.379042,2.630536)"
       sodipodi:start="0"
       sodipodi:end="6.2772939"
       sodipodi:open="true" />
    <path
       sodipodi:type="spiral"
       style="fill:none;stroke:#000000;stroke-width:3.67765474;stroke-linecap:butt;stroke-linejoin:miter;stroke-miterlimit:4;stroke-opacity:1;stroke-dasharray:none;marker-end:url(#TriangleOutM)"
       id="path6103"
       sodipodi:cx="344"
       sodipodi:cy="94.362183"
       sodipodi:expansion="0.43000001"
       sodipodi:revolution="3.6199999"
       sodipodi:radius="87.23941"
       sodipodi:argument="-5.1758404"
       sodipodi:t0="0"
       d="m 344,94.362183 c 10.27595,20.561977 -13.78566,24.567357 -24.72691,12.357387 -12.53041,-13.983387 -6.39743,-35.777769 8.07862,-45.670309 18.81169,-12.855401 44.67513,-5.289468 56.3064,13.493594 13.75831,22.217989 4.84414,51.713725 -17.22897,64.699615 -25.00707,14.71197 -57.67593,4.63332 -71.82914,-20.1924 -15.63348,-27.422221 -4.53068,-62.919757 22.69874,-78.11662 29.57827,-16.507768 67.64219,-4.486041 83.79152,24.897605 17.33496,31.540894 4.47555,71.964855 -26.87297,88.995355 -33.35196,18.1189 -75.96893,4.4865 -93.82271,-28.67712 -18.86402,-35.040149 -4.5115,-79.711666 30.34507,-98.340444 36.62618,-19.5745268 83.23523,-4.546033 102.59793,31.90155 20.25411,38.125531 4.58715,86.571654 -33.36474,106.632774 -39.55019,20.90595 -89.74599,4.63288 -110.47442,-34.74847 C 247.96559,90.685088 264.81653,38.816482 305.56191,17.448272 324.95029,7.2803666 347.91003,4.9076169 368.99062,10.778788"
       transform="matrix(0.36560306,-0.60492841,-0.63366005,-0.35793002,297.54675,372.89414)"
       inkscape:transform-center-x="10.348776"
       inkscape:transform-center-y="-19.986213" />
    <path
       style="fill:none;stroke:#000000;stroke-width:2.50000000000000000;stroke-linecap:butt;stroke-linejoin:miter;stroke-miterlimit:4;stroke-opacity:1;stroke-dasharray:none;marker-end:none;marker-mid:url(#TriangleOutM)"
       d="m 175,119.36218 c 0,0 -0.95774,81.39195 43,116 33.85051,26.6506 120.59763,44.58781 169,37 48.40237,-7.58781 105.48091,-43.31824 113,-98 6.14958,-44.72216 4.36437,-72.36064 -26,-107.999997 -34.40395,-34.996627 -91,-39 -91,-39 -65,4.333333 -88,32.666667 -106,64"
       id="path7245"
       inkscape:connector-curvature="0"
       sodipodi:nodetypes="cszsccc" />
  </g>
</svg>
