<?xml version="1.0" encoding="UTF-8" standalone="no"?>
<!-- Created with Inkscape (http://www.inkscape.org/) -->

<svg
   xmlns:dc="http://purl.org/dc/elements/1.1/"
   xmlns:cc="http://creativecommons.org/ns#"
   xmlns:rdf="http://www.w3.org/1999/02/22-rdf-syntax-ns#"
   xmlns:svg="http://www.w3.org/2000/svg"
   xmlns="http://www.w3.org/2000/svg"
   xmlns:sodipodi="http://sodipodi.sourceforge.net/DTD/sodipodi-0.dtd"
   xmlns:inkscape="http://www.inkscape.org/namespaces/inkscape"
   width="744.09448819"
   height="1052.3622047"
   id="svg2"
   version="1.1"
   inkscape:version="0.48.2 r9819"
   sodipodi:docname="drawing.svg">
  <defs
     id="defs4">
    <marker
       inkscape:stockid="TriangleInS"
       orient="auto"
       refY="0.0"
       refX="0.0"
       id="TriangleInS"
       style="overflow:visible">
      <path
         id="path3917"
         d="M 5.77,0.0 L -2.88,5.0 L -2.88,-5.0 L 5.77,0.0 z "
         style="fill-rule:evenodd;stroke:#000000;stroke-width:1.0pt;marker-start:none"
         transform="scale(-0.2)" />
    </marker>
    <marker
       inkscape:stockid="TriangleOutS"
       orient="auto"
       refY="0.0"
       refX="0.0"
       id="TriangleOutS"
       style="overflow:visible">
      <path
         id="path3926"
         d="M 5.77,0.0 L -2.88,5.0 L -2.88,-5.0 L 5.77,0.0 z "
         style="fill-rule:evenodd;stroke:#000000;stroke-width:1.0pt;marker-start:none"
         transform="scale(0.2)" />
    </marker>
    <marker
       inkscape:stockid="TriangleInM"
       orient="auto"
       refY="0.0"
       refX="0.0"
       id="TriangleInM"
       style="overflow:visible">
      <path
         id="path3914"
         d="M 5.77,0.0 L -2.88,5.0 L -2.88,-5.0 L 5.77,0.0 z "
         style="fill-rule:evenodd;stroke:#000000;stroke-width:1.0pt;marker-start:none"
         transform="scale(-0.4)" />
    </marker>
    <marker
       inkscape:stockid="Arrow2Mstart"
       orient="auto"
       refY="0.0"
       refX="0.0"
       id="Arrow2Mstart"
       style="overflow:visible">
      <path
         id="path3801"
         style="font-size:12.0;fill-rule:evenodd;stroke-width:0.62500000;stroke-linejoin:round"
         d="M 8.7185878,4.0337352 L -2.2072895,0.016013256 L 8.7185884,-4.0017078 C 6.9730900,-1.6296469 6.9831476,1.6157441 8.7185878,4.0337352 z "
         transform="scale(0.6) translate(0,0)" />
    </marker>
  </defs>
  <sodipodi:namedview
     id="base"
     pagecolor="#ffffff"
     bordercolor="#666666"
     borderopacity="1.0"
     inkscape:pageopacity="0.0"
     inkscape:pageshadow="2"
     inkscape:zoom="1"
     inkscape:cx="384.83069"
     inkscape:cy="816.50076"
     inkscape:document-units="px"
     inkscape:current-layer="layer1"
     showgrid="false"
     inkscape:window-width="1280"
     inkscape:window-height="752"
     inkscape:window-x="0"
     inkscape:window-y="0"
     inkscape:window-maximized="1" />
  <metadata
     id="metadata7">
    <rdf:RDF>
      <cc:Work
         rdf:about="">
        <dc:format>image/svg+xml</dc:format>
        <dc:type
           rdf:resource="http://purl.org/dc/dcmitype/StillImage" />
        <dc:title></dc:title>
      </cc:Work>
    </rdf:RDF>
  </metadata>
  <g
     inkscape:label="Layer 1"
     inkscape:groupmode="layer"
     id="layer1">
    <g
       id="g5557">
      <path
         transform="matrix(0.623432,0,0,0.64717403,59.356177,7.1852338)"
         d="m 137.14285,203.79076 c 18.38049,8.10905 2.94148,25.99624 -11.15388,25.28207 -20.65206,-1.04639 -31.388144,-23.89312 -27.166574,-42.1882 6.053514,-26.23422 35.172724,-39.31164 59.882944,-31.96872 31.19548,9.27009 46.47965,44.47596 36.52046,74.49974 -11.84728,35.71581 -52.64061,53.03796 -87.37893,40.77917 C 67.947064,256.1146 48.724475,210.15463 63.062432,171.10814 79.152581,127.28991 129.9406,106.27872 172.9925,122.53175 220.51309,140.4718 243.22021,195.81176 225.18015,242.63083 205.5126,293.67367 145.85042,317.99846 95.458644,298.27474 41.046722,276.97751 15.171476,213.18782 36.493104,159.38635 59.33937,101.73772 127.08886,74.370532 184.16058,97.217482 244.92999,121.54469 273.73755,193.10757 249.42778,253.32834 223.67819,317.11583 148.43122,347.31786 85.168143,321.59982 18.454398,294.47899 -13.100902,215.66323 13.977227,149.45285 42.424113,79.895637 124.70496,47.024346 193.77732,75.4196 c 72.32552,29.73261 106.47886,115.38459 76.80512,187.2417 -6.74399,16.33106 -16.4722,31.39648 -28.5612,44.2807"
         sodipodi:t0="0"
         sodipodi:argument="-18.434063"
         sodipodi:radius="147.10423"
         sodipodi:revolution="4.0575509"
         sodipodi:expansion="0.60000002"
         sodipodi:cy="203.79076"
         sodipodi:cx="137.14285"
         id="path2985"
         style="fill:none;stroke:#000000;stroke-width:3.49954057;stroke-linecap:butt;stroke-linejoin:miter;stroke-miterlimit:4;stroke-opacity:1;stroke-dasharray:none;marker-mid:url(#TriangleInS)"
         sodipodi:type="spiral" />
      <path
         transform="matrix(0.65489926,0,0,0.65489926,-25.50553,-49.615163)"
         d="m 254.36324,295.15057 a 2.6718829,2.6718829 0 1 1 -5.34376,0 2.6718829,2.6718829 0 1 1 5.34376,0 z"
         sodipodi:ry="2.6718829"
         sodipodi:rx="2.6718829"
         sodipodi:cy="295.15057"
         sodipodi:cx="251.69136"
         id="path4785"
         style="stroke:#000000;stroke-width:3.3900001;stroke-miterlimit:4;stroke-opacity:1;stroke-dasharray:none"
         sodipodi:type="arc" />
    </g>
    <g
       id="g5561">
      <g
         transform="translate(15.540067,-11.275182)"
         id="g5511">
        <path
           sodipodi:type="arc"
           style="fill:none;stroke:#000000;stroke-width:2.30807805;stroke-miterlimit:4;stroke-opacity:1;stroke-dasharray:none"
           id="path4811"
           sodipodi:cx="364.44482"
           sodipodi:cy="121.47819"
           sodipodi:rx="79.08773"
           sodipodi:ry="79.08773"
           d="m 443.53255,121.47819 c 0,43.67894 -35.40878,79.08773 -79.08773,79.08773 -43.67894,0 -79.08773,-35.40879 -79.08773,-79.08773 0,-43.67895 35.40879,-79.087733 79.08773,-79.087733 43.67895,0 79.08773,35.408783 79.08773,79.087733 z"
           transform="matrix(1.0831523,0,0,1.0831523,-46.919109,13.905718)" />
        <path
           transform="matrix(0.623432,0,0,0.64717403,258.76883,17.350191)"
           d="m 137.14285,203.79076 c 18.38049,8.10906 2.94148,25.99625 -11.15388,25.28208 -20.65207,-1.04639 -31.388159,-23.89313 -27.166587,-42.18821 6.053517,-26.23423 35.172737,-39.31166 59.882957,-31.96874 19.35389,5.75122 33.88592,22.38851 38.24534,41.93759"
           sodipodi:t0="0"
           sodipodi:argument="-18.434063"
           sodipodi:radius="60.208817"
           sodipodi:revolution="0.91549355"
           sodipodi:expansion="0.60000002"
           sodipodi:cy="203.79076"
           sodipodi:cx="137.14285"
           id="path4889"
           style="fill:none;stroke:#000000;stroke-width:3.49954057;stroke-linecap:butt;stroke-linejoin:miter;stroke-miterlimit:4;stroke-opacity:1;stroke-dasharray:none;marker-mid:url(#TriangleInS)"
           sodipodi:type="spiral" />
        <path
           sodipodi:type="arc"
           style="fill:none;stroke:#000000;stroke-width:2.5;stroke-miterlimit:4;stroke-opacity:1;stroke-dasharray:none;marker-start:url(#TriangleInS);marker-end:none"
           id="path4895"
           sodipodi:cx="250.5"
           sodipodi:cy="331.86218"
           sodipodi:rx="93.5"
           sodipodi:ry="52.5"
           d="m 330.17494,359.3363 c -27.02335,24.70771 -84.60178,32.43668 -128.60503,17.26315 -22.16189,-7.64203 -37.65374,-20.12168 -42.7542,-34.44117"
           sodipodi:start="0.55073831"
           sodipodi:end="2.9441971"
           transform="translate(92,-141)"
           sodipodi:open="true" />
        <path
           transform="matrix(1.0831523,0,0,1.0831523,-46.919109,13.905718)"
           d="m 443.53255,121.47819 c 0,43.67894 -35.40878,79.08773 -79.08773,79.08773 -43.67894,0 -79.08773,-35.40879 -79.08773,-79.08773 0,-43.67895 35.40879,-79.087733 79.08773,-79.087733 43.67895,0 79.08773,35.408783 79.08773,79.087733 z"
           sodipodi:ry="79.08773"
           sodipodi:rx="79.08773"
           sodipodi:cy="121.47819"
           sodipodi:cx="364.44482"
           id="path5480"
           style="fill:none;stroke:#000000;stroke-width:2.30807805;stroke-miterlimit:4;stroke-opacity:1;stroke-dasharray:none"
           sodipodi:type="arc" />
        <path
           sodipodi:type="spiral"
           style="fill:none;stroke:#000000;stroke-width:3.49954057;stroke-linecap:butt;stroke-linejoin:miter;stroke-miterlimit:4;stroke-opacity:1;stroke-dasharray:none;marker-mid:url(#TriangleInS)"
           id="path5482"
           sodipodi:cx="137.14285"
           sodipodi:cy="203.79076"
           sodipodi:expansion="0.60000002"
           sodipodi:revolution="0.91549355"
           sodipodi:radius="60.208817"
           sodipodi:argument="-18.434063"
           sodipodi:t0="0"
           d="m 137.14285,203.79076 c 18.38049,8.10906 2.94148,25.99625 -11.15388,25.28208 -20.65207,-1.04639 -31.388159,-23.89313 -27.166587,-42.18821 6.053517,-26.23423 35.172737,-39.31166 59.882957,-31.96874 19.35389,5.75122 33.88592,22.38851 38.24534,41.93759"
           transform="matrix(0.623432,0,0,0.64717403,258.76883,17.350191)" />
        <path
           sodipodi:open="true"
           transform="translate(92,-141)"
           sodipodi:end="2.9441971"
           sodipodi:start="0.55073831"
           d="m 330.17494,359.3363 c -27.02335,24.70771 -84.60178,32.43668 -128.60503,17.26315 -22.16189,-7.64203 -37.65374,-20.12168 -42.7542,-34.44117"
           sodipodi:ry="52.5"
           sodipodi:rx="93.5"
           sodipodi:cy="331.86218"
           sodipodi:cx="250.5"
           id="path5484"
           style="fill:none;stroke:#000000;stroke-width:2.5;stroke-miterlimit:4;stroke-opacity:1;stroke-dasharray:none;marker-start:url(#TriangleInS);marker-end:none"
           sodipodi:type="arc" />
      </g>
      <path
         sodipodi:type="arc"
         style="stroke:#000000;stroke-width:3.3900001;stroke-miterlimit:4;stroke-opacity:1;stroke-dasharray:none"
         id="path5553"
         sodipodi:cx="251.69136"
         sodipodi:cy="295.15057"
         sodipodi:rx="2.6718829"
         sodipodi:ry="2.6718829"
         d="m 254.36324,295.15057 a 2.6718829,2.6718829 0 1 1 -5.34376,0 2.6718829,2.6718829 0 1 1 5.34376,0 z"
         transform="matrix(0.65489926,0,0,0.65489926,188.49447,-49.615163)" />
    </g>
    <g
       id="g5571">
      <g
         transform="translate(-30.999911,-16.275182)"
         id="g5519">
        <path
           transform="matrix(1.0831523,0,0,1.0831523,214.08089,16.905718)"
           d="m 443.53255,121.47819 c 0,43.67894 -35.40878,79.08773 -79.08773,79.08773 -43.67894,0 -79.08773,-35.40879 -79.08773,-79.08773 0,-43.67895 35.40879,-79.087733 79.08773,-79.087733 43.67895,0 79.08773,35.408783 79.08773,79.087733 z"
           sodipodi:ry="79.08773"
           sodipodi:rx="79.08773"
           sodipodi:cy="121.47819"
           sodipodi:cx="364.44482"
           id="path5486"
           style="fill:none;stroke:#000000;stroke-width:2.30807805;stroke-miterlimit:4;stroke-opacity:1;stroke-dasharray:none"
           sodipodi:type="arc" />
        <path
           sodipodi:type="spiral"
           style="fill:none;stroke:#000000;stroke-width:3.49954057;stroke-linecap:butt;stroke-linejoin:miter;stroke-miterlimit:4;stroke-opacity:1;stroke-dasharray:none;marker-mid:url(#TriangleInS)"
           id="path5488"
           sodipodi:cx="137.14285"
           sodipodi:cy="203.79076"
           sodipodi:expansion="0.60000002"
           sodipodi:revolution="0.91549355"
           sodipodi:radius="60.208817"
           sodipodi:argument="-18.434063"
           sodipodi:t0="0"
           d="m 137.14285,203.79076 c 18.38049,8.10906 2.94148,25.99625 -11.15388,25.28208 -20.65207,-1.04639 -31.388159,-23.89313 -27.166587,-42.18821 6.053517,-26.23423 35.172737,-39.31166 59.882957,-31.96874 19.35389,5.75122 33.88592,22.38851 38.24534,41.93759"
           transform="matrix(0.623432,0,0,0.64717403,519.76883,20.350191)" />
        <path
           sodipodi:open="true"
           transform="translate(353,-138)"
           sodipodi:end="2.9441971"
           sodipodi:start="0.55073831"
           d="m 330.17494,359.3363 c -27.02335,24.70771 -84.60178,32.43668 -128.60503,17.26315 -22.16189,-7.64203 -37.65374,-20.12168 -42.7542,-34.44117"
           sodipodi:ry="52.5"
           sodipodi:rx="93.5"
           sodipodi:cy="331.86218"
           sodipodi:cx="250.5"
           id="path5490"
           style="fill:none;stroke:#000000;stroke-width:2.5;stroke-miterlimit:4;stroke-opacity:1;stroke-dasharray:none;marker-start:url(#TriangleInS);marker-end:none"
           sodipodi:type="arc" />
        <path
           sodipodi:type="arc"
           style="fill:none;stroke:#000000;stroke-width:2.30807805;stroke-miterlimit:4;stroke-opacity:1;stroke-dasharray:none"
           id="path5492"
           sodipodi:cx="364.44482"
           sodipodi:cy="121.47819"
           sodipodi:rx="79.08773"
           sodipodi:ry="79.08773"
           d="m 443.53255,121.47819 c 0,43.67894 -35.40878,79.08773 -79.08773,79.08773 -43.67894,0 -79.08773,-35.40879 -79.08773,-79.08773 0,-43.67895 35.40879,-79.087733 79.08773,-79.087733 43.67895,0 79.08773,35.408783 79.08773,79.087733 z"
           transform="matrix(1.0831523,0,0,1.0831523,214.08089,16.905718)" />
        <path
           transform="matrix(0.623432,0,0,0.64717403,519.76883,20.350191)"
           d="m 137.14285,203.79076 c 18.38049,8.10906 2.94148,25.99625 -11.15388,25.28208 -20.65207,-1.04639 -31.388159,-23.89313 -27.166587,-42.18821 6.053517,-26.23423 35.172737,-39.31166 59.882957,-31.96874 19.35389,5.75122 33.88592,22.38851 38.24534,41.93759"
           sodipodi:t0="0"
           sodipodi:argument="-18.434063"
           sodipodi:radius="60.208817"
           sodipodi:revolution="0.91549355"
           sodipodi:expansion="0.60000002"
           sodipodi:cy="203.79076"
           sodipodi:cx="137.14285"
           id="path5494"
           style="fill:none;stroke:#000000;stroke-width:3.49954057;stroke-linecap:butt;stroke-linejoin:miter;stroke-miterlimit:4;stroke-opacity:1;stroke-dasharray:none;marker-mid:url(#TriangleInS)"
           sodipodi:type="spiral" />
        <path
           sodipodi:type="arc"
           style="fill:none;stroke:#000000;stroke-width:2.5;stroke-miterlimit:4;stroke-opacity:1;stroke-dasharray:none;marker-start:url(#TriangleInS);marker-end:none"
           id="path5496"
           sodipodi:cx="250.5"
           sodipodi:cy="331.86218"
           sodipodi:rx="93.5"
           sodipodi:ry="52.5"
           d="m 330.17494,359.3363 c -27.02335,24.70771 -84.60178,32.43668 -128.60503,17.26315 -22.16189,-7.64203 -37.65374,-20.12168 -42.7542,-34.44117"
           sodipodi:start="0.55073831"
           sodipodi:end="2.9441971"
           transform="translate(353,-138)"
           sodipodi:open="true" />
        <path
           sodipodi:type="arc"
           style="fill:none;stroke:#000000;stroke-width:2.5;stroke-miterlimit:4;stroke-opacity:1;stroke-dasharray:10, 5;stroke-dashoffset:0"
           id="path5498"
           sodipodi:cx="605.5"
           sodipodi:cy="156.86218"
           sodipodi:rx="60.5"
           sodipodi:ry="60.5"
           d="m 546.11689,168.43354 c -6.39068,-32.79638 15.01537,-64.56378 47.81175,-70.954467 32.79639,-6.390685 64.56378,15.015367 70.95447,47.811747 6.39068,32.79639 -15.01537,64.56379 -47.81175,70.95447 -32.68171,6.36834 -64.36653,-14.86829 -70.89649,-47.51808"
           sodipodi:start="2.9491448"
           sodipodi:end="9.2273824"
           sodipodi:open="true"
           transform="translate(5,-7)" />
        <path
           transform="matrix(-0.50207072,-0.40680857,0.42031552,-0.96576268,611.03668,558.71638)"
           sodipodi:end="2.9441971"
           sodipodi:start="0.55073831"
           d="m 330.17494,359.3363 c -27.02335,24.70771 -84.60178,32.43668 -128.60503,17.26315 -22.16189,-7.64203 -37.65374,-20.12168 -42.7542,-34.44117"
           sodipodi:ry="52.5"
           sodipodi:rx="93.5"
           sodipodi:cy="331.86218"
           sodipodi:cx="250.5"
           id="path5500"
           style="fill:none;stroke:#000000;stroke-width:2.5;stroke-miterlimit:4;stroke-opacity:1;stroke-dasharray:none;marker-start:url(#TriangleInS);marker-end:none"
           sodipodi:type="arc"
           sodipodi:open="true" />
      </g>
      <path
         transform="matrix(0.65489926,0,0,0.65489926,404.49447,-49.615578)"
         d="m 254.36324,295.15057 a 2.6718829,2.6718829 0 1 1 -5.34376,0 2.6718829,2.6718829 0 1 1 5.34376,0 z"
         sodipodi:ry="2.6718829"
         sodipodi:rx="2.6718829"
         sodipodi:cy="295.15057"
         sodipodi:cx="251.69136"
         id="path5555"
         style="stroke:#000000;stroke-width:3.3900001;stroke-miterlimit:4;stroke-opacity:1;stroke-dasharray:none"
         sodipodi:type="arc" />
    </g>
  </g>
</svg>
