<?xml version="1.0" encoding="UTF-8" standalone="no"?>
<!-- Created with Inkscape (http://www.inkscape.org/) -->

<svg
   xmlns:dc="http://purl.org/dc/elements/1.1/"
   xmlns:cc="http://creativecommons.org/ns#"
   xmlns:rdf="http://www.w3.org/1999/02/22-rdf-syntax-ns#"
   xmlns:svg="http://www.w3.org/2000/svg"
   xmlns="http://www.w3.org/2000/svg"
   xmlns:sodipodi="http://sodipodi.sourceforge.net/DTD/sodipodi-0.dtd"
   xmlns:inkscape="http://www.inkscape.org/namespaces/inkscape"
   width="744.09448819"
   height="1052.3622047"
   id="svg2"
   version="1.1"
   inkscape:version="0.48.2 r9819"
   sodipodi:docname="New document 1">
  <defs
     id="defs4">
    <marker
       inkscape:stockid="Arrow2Mend"
       orient="auto"
       refY="0.0"
       refX="0.0"
       id="Arrow2Mend"
       style="overflow:visible;">
      <path
         id="path3793"
         style="font-size:12.0;fill-rule:evenodd;stroke-width:0.62500000;stroke-linejoin:round;"
         d="M 8.7185878,4.0337352 L -2.2072895,0.016013256 L 8.7185884,-4.0017078 C 6.9730900,-1.6296469 6.9831476,1.6157441 8.7185878,4.0337352 z "
         transform="scale(0.6) rotate(180) translate(0,0)" />
    </marker>
    <marker
       inkscape:stockid="Arrow1Send"
       orient="auto"
       refY="0.0"
       refX="0.0"
       id="Arrow1Send"
       style="overflow:visible;">
      <path
         id="path3781"
         d="M 0.0,0.0 L 5.0,-5.0 L -12.5,0.0 L 5.0,5.0 L 0.0,0.0 z "
         style="fill-rule:evenodd;stroke:#000000;stroke-width:1.0pt;marker-start:none;"
         transform="scale(0.2) rotate(180) translate(6,0)" />
    </marker>
    <marker
       inkscape:stockid="Arrow1Mend"
       orient="auto"
       refY="0.0"
       refX="0.0"
       id="Arrow1Mend"
       style="overflow:visible;">
      <path
         id="path3775"
         d="M 0.0,0.0 L 5.0,-5.0 L -12.5,0.0 L 5.0,5.0 L 0.0,0.0 z "
         style="fill-rule:evenodd;stroke:#000000;stroke-width:1.0pt;marker-start:none;"
         transform="scale(0.4) rotate(180) translate(10,0)" />
    </marker>
    <marker
       inkscape:stockid="TriangleOutS"
       orient="auto"
       refY="0.0"
       refX="0.0"
       id="TriangleOutS"
       style="overflow:visible">
      <path
         id="path3915"
         d="M 5.77,0.0 L -2.88,5.0 L -2.88,-5.0 L 5.77,0.0 z "
         style="fill-rule:evenodd;stroke:#000000;stroke-width:1.0pt;marker-start:none"
         transform="scale(0.2)" />
    </marker>
    <marker
       inkscape:stockid="TriangleOutM"
       orient="auto"
       refY="0.0"
       refX="0.0"
       id="TriangleOutM"
       style="overflow:visible">
      <path
         id="path3912"
         d="M 5.77,0.0 L -2.88,5.0 L -2.88,-5.0 L 5.77,0.0 z "
         style="fill-rule:evenodd;stroke:#000000;stroke-width:1.0pt;marker-start:none"
         transform="scale(0.4)" />
    </marker>
    <marker
       inkscape:stockid="Arrow2Lend"
       orient="auto"
       refY="0.0"
       refX="0.0"
       id="Arrow2Lend"
       style="overflow:visible;">
      <path
         id="path3787"
         style="font-size:12.0;fill-rule:evenodd;stroke-width:0.62500000;stroke-linejoin:round;"
         d="M 8.7185878,4.0337352 L -2.2072895,0.016013256 L 8.7185884,-4.0017078 C 6.9730900,-1.6296469 6.9831476,1.6157441 8.7185878,4.0337352 z "
         transform="scale(1.1) rotate(180) translate(1,0)" />
    </marker>
    <marker
       inkscape:stockid="Arrow1Lstart"
       orient="auto"
       refY="0.0"
       refX="0.0"
       id="Arrow1Lstart"
       style="overflow:visible">
      <path
         id="path3766"
         d="M 0.0,0.0 L 5.0,-5.0 L -12.5,0.0 L 5.0,5.0 L 0.0,0.0 z "
         style="fill-rule:evenodd;stroke:#000000;stroke-width:1.0pt;marker-start:none"
         transform="scale(0.8) translate(12.5,0)" />
    </marker>
  </defs>
  <sodipodi:namedview
     id="base"
     pagecolor="#ffffff"
     bordercolor="#666666"
     borderopacity="1.0"
     inkscape:pageopacity="0.0"
     inkscape:pageshadow="2"
     inkscape:zoom="1"
     inkscape:cx="350.92399"
     inkscape:cy="844.46398"
     inkscape:document-units="px"
     inkscape:current-layer="layer1"
     showgrid="false"
     inkscape:window-width="1263"
     inkscape:window-height="714"
     inkscape:window-x="17"
     inkscape:window-y="11"
     inkscape:window-maximized="0" />
  <metadata
     id="metadata7">
    <rdf:RDF>
      <cc:Work
         rdf:about="">
        <dc:format>image/svg+xml</dc:format>
        <dc:type
           rdf:resource="http://purl.org/dc/dcmitype/StillImage" />
        <dc:title></dc:title>
      </cc:Work>
    </rdf:RDF>
  </metadata>
  <g
     inkscape:label="Layer 1"
     inkscape:groupmode="layer"
     id="layer1">
    <g
       id="g7191"
       transform="translate(0,-1.5194603e-5)">
      <path
         sodipodi:nodetypes="ccccc"
         inkscape:connector-curvature="0"
         id="path2993"
         d="m 224,151.36218 c 51,-10.33333 114.82171,-34.95352 100,89 -45.08465,77.3175 -192.14819,64.88834 -220,42 -33.94192,-40.18993 -50.62152,-48.08849 -61,-103 27.329895,-57.63069 107.25174,-71.59236 193,-73"
         style="fill:#d1d1d1;fill-opacity:1;stroke:#000000;stroke-width:2.20000005;stroke-linecap:butt;stroke-linejoin:miter;stroke-miterlimit:4;stroke-opacity:1;stroke-dasharray:none;marker-mid:url(#TriangleOutM)" />
      <path
         sodipodi:nodetypes="cc"
         inkscape:connector-curvature="0"
         id="path4581"
         d="M 244.00822,51.25396 207.16294,230.69249"
         style="fill:none;stroke:#000000;stroke-width:1.88355458;stroke-linecap:butt;stroke-linejoin:miter;stroke-miterlimit:4;stroke-opacity:1;stroke-dasharray:none" />
      <path
         transform="matrix(1.1428571,0,0,1,-189.28571,-200)"
         d="m 373,306.36218 c 0,2.20914 -1.567,4 -3.5,4 -1.933,0 -3.5,-1.79086 -3.5,-4 0,-2.20914 1.567,-4 3.5,-4 1.933,0 3.5,1.79086 3.5,4 z"
         sodipodi:ry="4"
         sodipodi:rx="3.5"
         sodipodi:cy="306.36218"
         sodipodi:cx="369.5"
         id="path4583"
         style="stroke-width:2.0999999;stroke-miterlimit:4;stroke-dasharray:none"
         sodipodi:type="arc" />
      <path
         sodipodi:type="arc"
         style="stroke-width:2.0999999;stroke-miterlimit:4;stroke-dasharray:none"
         id="path4585"
         sodipodi:cx="369.5"
         sodipodi:cy="306.36218"
         sodipodi:rx="3.5"
         sodipodi:ry="4"
         d="m 373,306.36218 c 0,2.20914 -1.567,4 -3.5,4 -1.933,0 -3.5,-1.79086 -3.5,-4 0,-2.20914 1.567,-4 3.5,-4 1.933,0 3.5,1.79086 3.5,4 z"
         transform="matrix(1.1428571,0,0,1,-199.28571,-154)" />
      <path
         sodipodi:nodetypes="cc"
         inkscape:connector-curvature="0"
         id="path4587"
         d="m 190,157.36218 56,-10"
         style="fill:none;stroke:#000000;stroke-width:2.20000005;stroke-linecap:butt;stroke-linejoin:miter;stroke-miterlimit:4;stroke-opacity:1;stroke-dasharray:none;marker-end:url(#Arrow2Mend)" />
      <path
         style="fill:none;stroke:#000000;stroke-width:2.20000005;stroke-linecap:butt;stroke-linejoin:miter;stroke-miterlimit:4;stroke-opacity:1;stroke-dasharray:none;marker-end:url(#Arrow2Mend)"
         d="m 202,83.36218 62,-6"
         id="path4589"
         inkscape:connector-curvature="0"
         sodipodi:nodetypes="cc" />
      <path
         sodipodi:nodetypes="cc"
         inkscape:connector-curvature="0"
         id="path4591"
         d="m 204,107.36218 58,-3"
         style="fill:none;stroke:#000000;stroke-width:2.20000005;stroke-linecap:butt;stroke-linejoin:miter;stroke-miterlimit:4;stroke-opacity:1;stroke-dasharray:none;marker-end:url(#Arrow2Mend)" />
      <text
         transform="scale(1.0349823,0.96620009)"
         sodipodi:linespacing="125%"
         id="text6511"
         y="176.32185"
         x="221.01874"
         style="font-size:12.82887745px;font-style:normal;font-weight:normal;line-height:125%;letter-spacing:0px;word-spacing:0px;fill:#000000;fill-opacity:1;stroke:none;font-family:Sans"
         xml:space="preserve"><tspan
           y="176.32185"
           x="221.01874"
           id="tspan6513"
           sodipodi:role="line">k</tspan></text>
      <text
         transform="scale(1.0349823,0.96620009)"
         sodipodi:linespacing="125%"
         id="text6515"
         y="124.60055"
         x="192.68633"
         style="font-size:12.82887745px;font-style:normal;font-weight:normal;line-height:125%;letter-spacing:0px;word-spacing:0px;fill:#000000;fill-opacity:1;stroke:none;font-family:Sans"
         xml:space="preserve"><tspan
           y="124.60055"
           x="192.68633"
           id="tspan6517"
           sodipodi:role="line">k+1</tspan></text>
      <text
         transform="scale(0.94419354,1.0591049)"
         sodipodi:linespacing="125%"
         id="text6519"
         y="69.268097"
         x="225.19966"
         style="font-size:11.6701355px;font-style:normal;font-weight:normal;line-height:125%;letter-spacing:0px;word-spacing:0px;fill:#000000;fill-opacity:1;stroke:none;font-family:Sans"
         xml:space="preserve"><tspan
           y="69.268097"
           x="225.19966"
           id="tspan6521"
           sodipodi:role="line">k+2</tspan></text>
      <path
         sodipodi:type="arc"
         style="fill:#d83b43;fill-opacity:1;fill-rule:nonzero;stroke:none"
         id="path6523"
         sodipodi:cx="369.5"
         sodipodi:cy="306.36218"
         sodipodi:rx="3.5"
         sodipodi:ry="4"
         d="m 373,306.36218 c 0,2.20914 -1.567,4 -3.5,4 -1.933,0 -3.5,-1.79086 -3.5,-4 0,-2.20914 1.567,-4 3.5,-4 1.933,0 3.5,1.79086 3.5,4 z"
         transform="matrix(1.1428571,0,0,1,-184.28571,-227)" />
      <text
         transform="scale(0.9536302,1.0486245)"
         sodipodi:linespacing="125%"
         id="text7165"
         y="33.722446"
         x="250.56593"
         style="font-size:21.13954735px;font-style:normal;font-weight:normal;line-height:125%;letter-spacing:0px;word-spacing:0px;fill:#000000;fill-opacity:1;stroke:none;font-family:Sans"
         xml:space="preserve"><tspan
           y="33.722446"
           x="250.56593"
           id="tspan7167"
           sodipodi:role="line">L</tspan></text>
    </g>
    <g
       id="g7173"
       transform="translate(0,-1.5000153)">
      <path
         style="fill:#d1d1d1;fill-opacity:1;stroke:#000000;stroke-width:2.20000005;stroke-linecap:butt;stroke-linejoin:miter;stroke-miterlimit:4;stroke-opacity:1;stroke-dasharray:none;marker-mid:url(#TriangleOutM)"
         d="m 578,145.36218 c 51,-10.33333 114.82171,-34.95352 100,89 -45.08465,77.3175 -192.14819,64.88834 -220,42 -33.94192,-40.18993 -50.62152,-48.08849 -61,-103 27.3299,-57.63069 107.25174,-71.59236 193,-73"
         id="path7107"
         inkscape:connector-curvature="0"
         sodipodi:nodetypes="ccccc" />
      <path
         style="fill:none;stroke:#000000;stroke-width:1.88355458;stroke-linecap:butt;stroke-linejoin:miter;stroke-miterlimit:4;stroke-opacity:1;stroke-dasharray:none"
         d="M 595.00822,61.25396 558.16294,240.69249"
         id="path7109"
         inkscape:connector-curvature="0"
         sodipodi:nodetypes="cc" />
      <path
         sodipodi:type="arc"
         style="stroke-width:2.0999999;stroke-miterlimit:4;stroke-dasharray:none"
         id="path7111"
         sodipodi:cx="369.5"
         sodipodi:cy="306.36218"
         sodipodi:rx="3.5"
         sodipodi:ry="4"
         d="m 373,306.36218 c 0,2.20914 -1.567,4 -3.5,4 -1.933,0 -3.5,-1.79086 -3.5,-4 0,-2.20914 1.567,-4 3.5,-4 1.933,0 3.5,1.79086 3.5,4 z"
         transform="matrix(1.1428571,0,0,1,164.71429,-206)" />
      <path
         transform="matrix(1.1428571,0,0,1,154.71429,-160)"
         d="m 373,306.36218 c 0,2.20914 -1.567,4 -3.5,4 -1.933,0 -3.5,-1.79086 -3.5,-4 0,-2.20914 1.567,-4 3.5,-4 1.933,0 3.5,1.79086 3.5,4 z"
         sodipodi:ry="4"
         sodipodi:rx="3.5"
         sodipodi:cy="306.36218"
         sodipodi:cx="369.5"
         id="path7113"
         style="stroke-width:2.0999999;stroke-miterlimit:4;stroke-dasharray:none"
         sodipodi:type="arc" />
      <path
         style="fill:none;stroke:#000000;stroke-width:2.20000005;stroke-linecap:butt;stroke-linejoin:miter;stroke-miterlimit:4;stroke-opacity:1;stroke-dasharray:none;marker-end:url(#Arrow2Mend)"
         d="m 544,151.36218 56,-10"
         id="path7115"
         inkscape:connector-curvature="0"
         sodipodi:nodetypes="cc" />
      <path
         sodipodi:nodetypes="cc"
         inkscape:connector-curvature="0"
         id="path7117"
         d="m 540,198.36218 62,-6"
         style="fill:none;stroke:#000000;stroke-width:2.20000005;stroke-linecap:butt;stroke-linejoin:miter;stroke-miterlimit:4;stroke-opacity:1;stroke-dasharray:none;marker-end:url(#Arrow2Mend)" />
      <path
         style="fill:none;stroke:#000000;stroke-width:2.20000005;stroke-linecap:butt;stroke-linejoin:miter;stroke-miterlimit:4;stroke-opacity:1;stroke-dasharray:none;marker-end:url(#Arrow2Mend)"
         d="m 558,101.36218 58,-3"
         id="path7119"
         inkscape:connector-curvature="0"
         sodipodi:nodetypes="cc" />
      <text
         xml:space="preserve"
         style="font-size:12.82887745px;font-style:normal;font-weight:normal;line-height:125%;letter-spacing:0px;word-spacing:0px;fill:#000000;fill-opacity:1;stroke:none;font-family:Sans"
         x="563.05359"
         y="170.11195"
         id="text7121"
         sodipodi:linespacing="125%"
         transform="scale(1.0349823,0.96620009)"><tspan
           sodipodi:role="line"
           id="tspan7123"
           x="563.05359"
           y="170.11195">k</tspan></text>
      <text
         xml:space="preserve"
         style="font-size:12.82887745px;font-style:normal;font-weight:normal;line-height:125%;letter-spacing:0px;word-spacing:0px;fill:#000000;fill-opacity:1;stroke:none;font-family:Sans"
         x="534.72119"
         y="117.35567"
         id="text7125"
         sodipodi:linespacing="125%"
         transform="scale(1.0349823,0.96620009)"><tspan
           sodipodi:role="line"
           id="tspan7127"
           x="534.72119"
           y="117.35567">k+1</tspan></text>
      <text
         xml:space="preserve"
         style="font-size:11.6701355px;font-style:normal;font-weight:normal;line-height:125%;letter-spacing:0px;word-spacing:0px;fill:#000000;fill-opacity:1;stroke:none;font-family:Sans"
         x="572.58612"
         y="178.79454"
         id="text7129"
         sodipodi:linespacing="125%"
         transform="scale(0.94419354,1.0591049)"><tspan
           sodipodi:role="line"
           id="tspan7131"
           x="572.58612"
           y="178.79454">k+2</tspan></text>
      <path
         transform="matrix(1.1428571,0,0,1,143.71429,-111)"
         d="m 373,306.36218 c 0,2.20914 -1.567,4 -3.5,4 -1.933,0 -3.5,-1.79086 -3.5,-4 0,-2.20914 1.567,-4 3.5,-4 1.933,0 3.5,1.79086 3.5,4 z"
         sodipodi:ry="4"
         sodipodi:rx="3.5"
         sodipodi:cy="306.36218"
         sodipodi:cx="369.5"
         id="path7133"
         style="fill:#d83b43;fill-opacity:1;fill-rule:nonzero;stroke:none"
         sodipodi:type="arc" />
      <text
         xml:space="preserve"
         style="font-size:21.13954735px;font-style:normal;font-weight:normal;line-height:125%;letter-spacing:0px;word-spacing:0px;fill:#000000;fill-opacity:1;stroke:none;font-family:Sans"
         x="617.58453"
         y="42.305119"
         id="text7169"
         sodipodi:linespacing="125%"
         transform="scale(0.9536302,1.0486245)"><tspan
           sodipodi:role="line"
           id="tspan7171"
           x="617.58453"
           y="42.305119">L</tspan></text>
    </g>
  </g>
</svg>
